<?xml version="1.0" encoding="utf-8"?>
<!-- Generator: Adobe Illustrator 16.0.4, SVG Export Plug-In . SVG Version: 6.00 Build 0)  -->
<!DOCTYPE svg PUBLIC "-//W3C//DTD SVG 1.1//EN" "http://www.w3.org/Graphics/SVG/1.1/DTD/svg11.dtd">
<svg version="1.1" id="Layer_1" xmlns="http://www.w3.org/2000/svg" xmlns:xlink="http://www.w3.org/1999/xlink" x="0px" y="0px"
	 width="200px" height="179.25px" viewBox="0 0 200 179.25" enable-background="new 0 0 200 179.25" xml:space="preserve">
<g>
	<path fill="none" stroke="#FFFFFF" stroke-width="2" stroke-miterlimit="10" d="M128.477,85.709"/>
</g>
<g>
	<g>
		<path fill="#333333" d="M124.787,80.267c0,0,0.08,4.814,0.024,10.267c-0.048,4.57-0.027,9.59-0.158,12.589
			c-0.164,3.822-0.67,5.917-0.67,5.917s41.839,0.131,43.518,0.143c0.042,0,0.251,0.011,0.623,0.011
			c3.253,0,14.333-0.692,20.196-9.582c6.832-10.362,8.103-13.507,8.111-13.537l0.042-0.082c0.006-0.009,0.237-0.417-0.107-0.933
			c-0.503-0.754-2.432-2.08-9.699-2.49c-12.345-0.699-59.768-2.247-60.251-2.264L124.787,80.267z"/>
	</g>
</g>
<g>
	<path fill="#FFFFFF" d="M123.939,100.506l-0.661-0.401c0.555-0.909,4.438-3.134,5.212-3.57l0.089-0.049h19.471
		c1.619,0,2.926,0.012,4.016,0.022c5.014,0.052,5.425,0.056,11-1.458c1.938-0.525,3.659-2.096,5.115-4.665
		c2.5-4.402,3.34-10.228,3.349-10.286l0.765,0.107c-0.036,0.245-0.869,6.032-3.44,10.559c-1.563,2.757-3.441,4.448-5.585,5.03
		c-5.681,1.543-6.202,1.537-11.212,1.486c-1.086-0.011-2.39-0.024-4.007-0.024h-19.268
		C127.053,98.238,124.281,99.946,123.939,100.506z"/>
</g>
<g>
	<path fill="#FFFFFF" d="M140.22,111.292l-0.763-0.124c0.202-1.215-1.819-9.153-3.228-14.193l0.743-0.206
		C137.337,98.066,140.515,109.521,140.22,111.292z"/>
</g>
<g>
	<path fill="#FFFFFF" d="M145.62,111.994l-0.744-0.206c0.569-2.044-2.383-11.369-3.568-14.792l0.731-0.252
		C142.214,97.256,146.367,109.304,145.62,111.994z"/>
</g>
<g>
	<path fill="#FFFFFF" d="M133.895,110.747l-0.768-0.109c0.455-3.228-1.642-12.854-2.002-13.547c0.033,0.064,0.146,0.167,0.309,0.167
		v-0.772l0.305,0.142C132.201,97.158,134.365,107.386,133.895,110.747z"/>
</g>
<g>
	<path fill="#FFFFFF" d="M130.37,111.559l-0.771-0.079c0.23-2.283-1.23-13.977-1.3-14.539c-0.154-0.661-2.451-10.621-0.893-14.251
		l0.71,0.306c-1.479,3.442,0.915,13.683,0.939,13.788l0.005,0.039C129.128,97.324,130.611,109.143,130.37,111.559z"/>
</g>
<g>
	<path fill="#FFFFFF" d="M195.325,92.731c-0.224-0.066-22.491-6.609-24.71-6.874l-18.976-3.961l0.158-0.757l18.943,3.955
		c2.25,0.268,23.884,6.624,24.801,6.896L195.325,92.731z"/>
</g>
<g>
	
		<rect x="147.754" y="87.373" transform="matrix(0.8793 0.4763 -0.4763 0.8793 60.8825 -64.687)" fill="#FFFFFF" width="20.593" height="0.774"/>
</g>
<g>
	
		<rect x="167.263" y="95.531" transform="matrix(0.8877 0.4603 -0.4603 0.8877 64.2707 -71.7227)" fill="#FFFFFF" width="23.859" height="0.772"/>
</g>
<g>
	<path fill="none" stroke="#FFFFFF" stroke-width="2" stroke-miterlimit="10" d="M175.292,102.995"/>
</g>
<g>
	<path fill="#FFFFFF" d="M181.092,109.015c-0.617-0.87-15.127-14.006-15.775-14.45l0.212-0.307l-0.257-0.329l0.414-0.039
		c0.39,0.188,8.118,7.236,8.195,7.308c7.935,7.237,7.935,7.402,7.935,7.634h-0.774C181.041,108.94,181.092,109.012,181.092,109.015z
		"/>
</g>
<g>
	<path fill="none" stroke="#FFFFFF" stroke-width="2" stroke-miterlimit="10" d="M196.593,96.872"/>
</g>
<g>
	
		<rect x="187.195" y="89.302" transform="matrix(0.1427 0.9898 -0.9898 0.1427 255.7593 -103.4277)" fill="#FFFFFF" width="0.774" height="13.233"/>
</g>
<g>
	<path fill="#FFFFFF" d="M176.674,109.911c-0.461-0.5-6.275-4.35-10.584-4.089l-0.047-0.772c4.748-0.295,10.663,3.831,11.146,4.287
		c0.06,0.054,0.182,0.168,0.182,0.351h-0.774C176.596,109.827,176.67,109.908,176.674,109.911z"/>
</g>
<g>
	<path fill="#FFFFFF" d="M169.562,111.138l-0.151-0.238c-1.811-2.876-8.682-13.663-9.391-14.382
		c-0.294-0.166-0.294-0.453-0.294-0.607c0-0.363-0.004-1.325-3.549-3.942c-1.456-1.073-2.911-1.956-4.194-2.735
		c-3.076-1.861-5.502-3.334-5.576-6.004l0.774-0.021c0.061,2.25,2.218,3.557,5.2,5.365c1.302,0.787,2.771,1.68,4.255,2.773
		c3.86,2.85,3.86,4.005,3.86,4.562c0,0.002,0,0.003,0,0.003c0.256,0.226,1.045,1.271,4.998,7.413
		c3.403,5.282,4.313,6.719,4.553,7.175l0.018-0.013l-0.018,0.013c0,0,0.003,0.002,0.003,0.005l0.019-0.012l-0.019,0.012
		c0.083,0.162,0.08,0.194,0.077,0.236l-0.029,0.273L169.562,111.138z"/>
</g>
<g>
	<path fill="#FFFFFF" d="M160.148,111.358c-0.06-0.152-0.962-2.095-1.918-4.15c-0.979-2.11-2.152-4.638-3.071-6.648
		c-1.706-3.709-1.706-3.709-1.516-3.938l0.398-0.124l-0.101,0.375l0.375-0.085c0.128,0.424,2.938,6.478,4.617,10.093
		c1.965,4.235,1.965,4.235,1.965,4.35h-0.773h0.387L160.148,111.358z"/>
</g>
<g>
	<path fill="#FFFFFF" d="M166.245,111.669c-0.327-0.579-6.492-7.099-8.729-6.689l-0.136-0.76c0.865-0.155,2.075,0.333,3.685,1.494
		c2.585,1.857,5.847,5.277,5.916,5.749l-0.765,0.112C166.224,111.632,166.242,111.668,166.245,111.669z"/>
</g>
<g>
	<path fill="#FFFFFF" d="M152.599,112.308c-0.837-3.73-3.444-13.703-5.438-15.028l0.426-0.643c2.616,1.736,5.453,14.1,5.766,15.502
		L152.599,112.308z"/>
</g>
<g>
	<path fill="#FFFFFF" d="M151.962,97.086c-0.019-0.036-2.019-3.595-4.618-5.412c-2.762-1.936-5.177-6.271-5.332-8.572l0.771-0.052
		c0.128,1.896,2.287,6.088,5.004,7.989c2.748,1.924,4.767,5.519,4.851,5.67L151.962,97.086z"/>
</g>
<g>
	<path fill="#FFFFFF" d="M146.212,97.258v-0.386l-0.317-0.216c-0.087,0.132-0.065,0.27-0.042,0.324
		c-0.176-0.412-3.129-4.722-4.454-6.044c-1.427-1.429-5.1-7.435-5.175-7.775l0.378-0.082l0.362-0.132
		c0.159,0.367,3.604,6.066,4.983,7.443c0.881,0.881,2.301,2.838,2.869,3.64c1.892,2.662,1.845,2.777,1.759,2.986l-0.099,0.237
		L146.212,97.258z"/>
</g>
<g>
	<path fill="#FFFFFF" d="M138.679,97.057c0,0-1.908-3.479-3.808-6.963c-0.952-1.742-1.901-3.484-2.612-4.793
		c-1.325-2.451-1.325-2.451-1.086-2.667l0.479-0.03l-0.22,0.317l0.356-0.14c0.168,0.379,4.617,8.521,7.567,13.903L138.679,97.057z
		 M131.433,82.922l-0.222,0.316L131.433,82.922z"/>
</g>
<g>
	<path fill="none" stroke="#FFFFFF" stroke-width="2" stroke-miterlimit="10" d="M128.68,82.855"/>
</g>
<g>
	<path fill="#FFFFFF" d="M123.826,85.977l-0.436-0.641l4.258-2.884l0.123,0.003c0.145,0.004,14.573,0.348,19.348,0.201
		c2.381-0.071,4.734-0.594,5.828-3.907l0.735,0.242c-1.415,4.282-4.877,4.388-6.541,4.438c-4.555,0.139-17.838-0.164-19.264-0.197
		L123.826,85.977z"/>
</g>
<g>
	<path fill="#FFFFFF" d="M134.326,97.024l-0.762-0.135c0.053-0.302-0.367-1.221-0.811-2.191c-0.518-1.128-1.161-2.535-1.691-4.202
		c-0.72-2.271-2.917-7.434-2.94-7.486l0.711-0.302c0.093,0.212,2.232,5.247,2.968,7.555c0.515,1.621,1.147,3.004,1.655,4.114
		C134.058,95.691,134.421,96.485,134.326,97.024z"/>
</g>
<g>
	<path fill="none" stroke="#FFFFFF" stroke-width="2" stroke-miterlimit="10" d="M72.019,85.709"/>
</g>
<g>
	<g>
		<path fill="#333333" d="M75.709,80.267c0,0-0.079,4.814-0.023,10.267c0.046,4.57,0.028,9.59,0.157,12.589
			c0.165,3.822,0.669,5.917,0.669,5.917s-41.839,0.131-43.517,0.143c-0.041,0-0.25,0.011-0.622,0.011
			c-3.256,0-14.335-0.692-20.196-9.582C5.345,89.248,4.076,86.104,4.063,86.073l-0.041-0.082c-0.005-0.009-0.236-0.417,0.108-0.933
			c0.504-0.754,2.433-2.08,9.698-2.49c12.346-0.699,59.769-2.247,60.252-2.264L75.709,80.267z"/>
	</g>
</g>
<g>
	<path fill="#FFFFFF" d="M76.56,100.506c-0.344-0.56-3.115-2.268-4.844-3.248H52.448c-1.617,0-2.92,0.014-4.008,0.024
		c-5.006,0.051-5.53,0.057-11.212-1.486c-2.141-0.582-4.02-2.273-5.584-5.03c-2.57-4.527-3.405-10.314-3.439-10.559l0.765-0.108
		c0.009,0.059,0.851,5.889,3.347,10.286c1.459,2.57,3.18,4.14,5.114,4.665c5.579,1.514,5.988,1.51,11.002,1.458
		c1.09-0.011,2.396-0.022,4.016-0.022h19.471l0.088,0.049c0.773,0.437,4.656,2.661,5.211,3.57L76.56,100.506z"/>
</g>
<g>
	<path fill="#FFFFFF" d="M60.278,111.292c-0.295-1.771,2.882-13.226,3.246-14.523l0.744,0.206
		c-1.408,5.042-3.43,12.979-3.227,14.193L60.278,111.292z"/>
</g>
<g>
	<path fill="#FFFFFF" d="M54.877,111.994c-0.749-2.69,3.404-14.738,3.582-15.25l0.73,0.252c-1.185,3.423-4.135,12.749-3.567,14.792
		L54.877,111.994z"/>
</g>
<g>
	<path fill="#FFFFFF" d="M66.604,110.747c-0.472-3.36,1.691-13.588,2.154-14.119l0.306-0.143v0.772c0.162,0,0.275-0.103,0.308-0.167
		c-0.359,0.693-2.456,10.317-2.002,13.547L66.604,110.747z"/>
</g>
<g>
	<path fill="#FFFFFF" d="M70.128,111.559c-0.243-2.416,1.242-14.234,1.306-14.736l0.006-0.039
		c0.025-0.105,2.417-10.347,0.939-13.788l0.71-0.306c1.558,3.63-0.738,13.59-0.893,14.251c-0.07,0.562-1.53,12.256-1.3,14.539
		L70.128,111.559z"/>
</g>
<g>
	<path fill="#FFFFFF" d="M5.172,92.731L4.954,91.99c0.92-0.271,22.553-6.628,24.836-6.9l18.909-3.95l0.159,0.757l-18.943,3.955
		C27.663,86.123,5.396,92.665,5.172,92.731z"/>
</g>
<g>
	
		<rect x="42.061" y="77.464" transform="matrix(0.4758 0.8796 -0.8796 0.4758 99.4445 8.6718)" fill="#FFFFFF" width="0.774" height="20.592"/>
</g>
<g>
	
		<rect x="20.918" y="83.987" transform="matrix(0.4603 0.8878 -0.8878 0.4603 96.6495 32.8525)" fill="#FFFFFF" width="0.773" height="23.859"/>
</g>
<g>
	<path fill="none" stroke="#FFFFFF" stroke-width="2" stroke-miterlimit="10" d="M25.205,102.995"/>
</g>
<g>
	<path fill="#FFFFFF" d="M19.405,109.015c0.002-0.003,0.052-0.074,0.052-0.184h-0.773c0-0.231,0-0.396,7.934-7.634
		c0.078-0.071,7.805-7.119,8.194-7.308l0.414,0.039l-0.238,0.306l0.193,0.33C34.532,95.009,20.022,108.145,19.405,109.015z"/>
</g>
<g>
	<path fill="none" stroke="#FFFFFF" stroke-width="2" stroke-miterlimit="10" d="M3.904,96.872"/>
</g>
<g>
	
		<rect x="6.298" y="95.533" transform="matrix(0.9896 0.1439 -0.1439 0.9896 13.9367 -0.8602)" fill="#FFFFFF" width="13.234" height="0.772"/>
</g>
<g>
	<path fill="#FFFFFF" d="M23.824,109.911c0.003-0.003,0.077-0.084,0.077-0.224h-0.773c0-0.183,0.121-0.297,0.179-0.351
		c0.483-0.456,6.388-4.588,11.147-4.287l-0.048,0.772C30.114,105.562,24.285,109.411,23.824,109.911z"/>
</g>
<g>
	<path fill="#FFFFFF" d="M30.667,111.075l-0.296-0.336c-0.005-0.042-0.008-0.074,0.076-0.236l-0.018-0.01l0.018,0.01
		c0.233-0.444,1.136-1.869,4.555-7.18c3.954-6.143,4.743-7.188,4.998-7.413c0,0,0-0.001,0-0.003c0-0.557,0.002-1.712,3.862-4.562
		c1.483-1.094,2.956-1.986,4.253-2.773c2.985-1.809,5.141-3.115,5.202-5.365l0.772,0.021c-0.073,2.67-2.5,4.142-5.574,6.004
		c-1.284,0.779-2.74,1.662-4.195,2.735c-3.547,2.617-3.547,3.579-3.548,3.942c0,0.154,0,0.441-0.294,0.607
		c-0.659,0.667-6.59,9.943-9.392,14.382l0,0c-0.002,0.002-0.003,0.003-0.005,0.006l-0.004-0.003L30.667,111.075z"/>
</g>
<g>
	<path fill="#FFFFFF" d="M40.35,111.358l-0.329-0.129H39.6c0-0.114,0-0.114,1.964-4.35c1.679-3.615,4.489-9.669,4.618-10.093
		l0.351,0.106l0.022-0.021l-0.101-0.375l0.398,0.124c0.191,0.229,0.191,0.229-1.512,3.938c-0.923,2.011-2.097,4.538-3.076,6.648
		C41.311,109.264,40.409,111.206,40.35,111.358z"/>
</g>
<g>
	<path fill="#FFFFFF" d="M34.253,111.669c0.001-0.001,0.02-0.037,0.029-0.094l-0.765-0.112c0.069-0.472,3.332-3.892,5.915-5.749
		c1.612-1.161,2.816-1.652,3.685-1.494l-0.136,0.76C40.741,104.577,34.578,111.09,34.253,111.669L34.253,111.669z"/>
</g>
<g>
	<path fill="#FFFFFF" d="M47.898,112.308l-0.754-0.169c0.314-1.402,3.152-13.766,5.766-15.502l0.428,0.643
		C51.345,98.604,48.735,108.577,47.898,112.308z"/>
</g>
<g>
	<path fill="#FFFFFF" d="M48.535,97.086l-0.676-0.377c0.085-0.151,2.104-3.746,4.851-5.67c2.718-1.901,4.876-6.092,5.004-7.989
		l0.771,0.052c-0.155,2.301-2.568,6.637-5.333,8.572C50.554,93.491,48.554,97.05,48.535,97.086z"/>
</g>
<g>
	<path fill="#FFFFFF" d="M54.284,97.258l-0.362-0.241c-0.085-0.209-0.133-0.324,1.759-2.986c0.569-0.802,1.988-2.759,2.87-3.64
		c1.377-1.377,4.824-7.076,4.983-7.443l0.247,0.106l0.494,0.107c-0.075,0.341-3.748,6.347-5.177,7.775
		c-1.322,1.322-4.277,5.632-4.451,6.044c0.023-0.055,0.043-0.192-0.043-0.324l-0.319,0.209V97.258z"/>
</g>
<g>
	<path fill="#FFFFFF" d="M61.819,97.057l-0.677-0.372c2.948-5.382,7.397-13.524,7.564-13.903l0.347,0.154l0.012-0.014l-0.221-0.318
		l0.479,0.03c0.241,0.216,0.241,0.216-1.086,2.667c-0.71,1.309-1.66,3.051-2.61,4.793C63.726,93.578,61.819,97.057,61.819,97.057z"
		/>
</g>
<g>
	<path fill="none" stroke="#FFFFFF" stroke-width="2" stroke-miterlimit="10" d="M71.817,82.855"/>
</g>
<g>
	<path fill="#FFFFFF" d="M76.672,85.977l-4.052-2.744c-1.427,0.033-14.708,0.336-19.266,0.197c-1.663-0.051-5.125-0.156-6.539-4.438
		l0.734-0.242c1.094,3.313,3.447,3.835,5.828,3.907c4.773,0.146,19.202-0.197,19.348-0.201l0.123-0.003l4.257,2.884L76.672,85.977z"
		/>
</g>
<g>
	<path fill="#FFFFFF" d="M66.172,97.024c-0.095-0.539,0.268-1.333,0.868-2.647c0.508-1.11,1.142-2.493,1.657-4.114
		c0.734-2.308,2.876-7.343,2.968-7.555l0.71,0.302c-0.022,0.053-2.219,5.215-2.941,7.486c-0.53,1.667-1.174,3.074-1.69,4.202
		c-0.444,0.971-0.864,1.89-0.81,2.191L66.172,97.024z"/>
</g>
<g>
	<path fill="#333333" d="M123.222,80.224l-21.157,5.291v40.505c0,0,20.704-4.082,21.157-22.897
		C123.674,84.305,123.222,80.224,123.222,80.224z"/>
	<path fill="#333333" d="M101.483,126.726V85.062l22.241-5.561l0.074,0.659c0.018,0.167,0.452,4.334,0.003,22.976
		c-0.134,5.504-2.152,13.265-11.015,18.978c-5.266,3.394-10.396,4.433-10.613,4.474L101.483,126.726z M102.642,85.967v39.32
		c1.569-0.4,5.565-1.596,9.547-4.168c6.755-4.363,10.271-10.422,10.452-18.011c0.354-14.683,0.155-20.39,0.053-22.154
		L102.642,85.967z"/>
</g>
<g>
	<path fill="#333333" d="M100.249,81.887l-22.973-5.289c0,0,0.302-11.185,8.766-12.544c2.128-0.342,4.083-0.632,5.819-0.875
		c0.379-0.053,0.747-0.103,1.105-0.152c0,0,5.457-0.289,7.283-0.289c1.828,0,7.282,0.289,7.282,0.289
		c0.359,0.049,0.728,0.1,1.107,0.152c1.735,0.243,3.69,0.533,5.816,0.875c8.466,1.36,8.768,12.544,8.768,12.544L100.249,81.887z"/>
	<path fill="#333333" d="M100.249,82.482l-0.129-0.031l-23.436-5.396l0.013-0.473c0.003-0.117,0.417-11.681,9.254-13.101
		c1.968-0.316,3.929-0.611,5.831-0.876l1.155-0.157c0.223-0.012,5.492-0.291,7.313-0.291c1.821,0,7.09,0.278,7.314,0.291
		l0.048,0.004l1.106,0.153c1.9,0.266,3.862,0.56,5.829,0.876c8.838,1.42,9.253,12.984,9.256,13.101l0.012,0.473L100.249,82.482z
		 M77.885,76.143l22.363,5.148l22.363-5.148c-0.18-2.082-1.321-10.404-8.248-11.518c-1.961-0.314-3.913-0.608-5.807-0.873
		l-1.08-0.149c-0.399-0.021-5.499-0.287-7.228-0.287c-1.729,0-6.83,0.267-7.228,0.287l-1.081,0.149
		c-1.893,0.265-3.847,0.559-5.806,0.873C79.197,65.74,78.061,74.061,77.885,76.143z"/>
</g>
<g>
	<path fill="#333333" d="M77.276,80.224l21.159,5.291v40.505c0,0-20.706-4.082-21.159-22.897
		C76.823,84.305,77.276,80.224,77.276,80.224z"/>
	<path fill="#333333" d="M99.015,126.726l-0.692-0.138c-0.216-0.041-5.345-1.08-10.611-4.474
		c-4.892-3.152-10.774-9.005-11.015-18.978c-0.449-18.642-0.015-22.809,0.003-22.976l0.074-0.659l22.242,5.561V126.726z
		 M77.805,80.955c-0.102,1.771-0.303,7.504,0.05,22.153c0.39,16.21,16.442,21.259,20,22.178V85.967L77.805,80.955z"/>
</g>
<g>
	<path fill="none" stroke="#231F20" stroke-width="3" stroke-miterlimit="10" d="M100.249,60.552"/>
</g>
<g>
	<path fill="#333333" d="M100.249,60.552c-7.869,0-10.723,0.923-10.723,0.923c0.208-3.587,5.357-5.852,5.357-5.852l0,0
		c0.919-0.094,1.083-1.436,2.056-1.479c0.698-0.031,1.184,0.619,3.309,0.619c2.125,0,2.611-0.65,3.31-0.619
		c0.974,0.044,1.135,1.385,2.056,1.479l0,0c0,0,5.148,2.264,5.356,5.852C110.971,61.475,108.117,60.552,100.249,60.552"/>
	<path fill="#333333" d="M111.599,62.286l-0.805-0.26c-0.038-0.012-2.919-0.895-10.545-0.895c-7.64,0-10.517,0.886-10.545,0.895
		L88.9,62.281l0.047-0.84c0.226-3.897,5.479-6.25,5.702-6.349l0.084-0.037l0.09-0.009c0.194-0.02,0.351-0.208,0.59-0.512
		c0.309-0.395,0.734-0.935,1.499-0.969l0.076-0.003c0.346,0,0.64,0.107,0.949,0.221c0.486,0.178,1.091,0.399,2.311,0.399
		c1.219,0,1.824-0.221,2.311-0.399c0.31-0.114,0.603-0.221,0.95-0.221l0.074,0.003c0.765,0.034,1.189,0.574,1.498,0.969
		c0.241,0.305,0.397,0.493,0.592,0.512l0.091,0.009l0.083,0.037c0.223,0.099,5.476,2.452,5.701,6.349L111.599,62.286z
		 M100.249,59.972c5.534,0,8.615,0.451,10,0.732c-0.771-2.547-4.26-4.267-4.8-4.519c-0.625-0.107-0.985-0.564-1.276-0.935
		c-0.283-0.36-0.429-0.518-0.641-0.528c0,0,0,0-0.001,0c-0.164,0-0.335,0.062-0.573,0.149c-0.511,0.187-1.284,0.47-2.708,0.47
		c-1.425,0-2.198-0.283-2.708-0.47c-0.238-0.087-0.411-0.15-0.552-0.15c-0.235,0.011-0.38,0.168-0.664,0.529
		c-0.291,0.371-0.65,0.827-1.277,0.935c-0.537,0.252-4.026,1.979-4.798,4.518C91.634,60.423,94.716,59.972,100.249,59.972z"/>
</g>
<g>
	<path fill="none" stroke="#231F20" stroke-width="3" stroke-miterlimit="10" d="M103.835,60.961"/>
</g>
<g>
	<path fill="#FFFFFF" d="M104.922,61.467l-1.158-0.074c0.115-1.82,0.943-6.002,2.039-7.18l0.849,0.79
		C105.937,55.771,105.058,59.354,104.922,61.467z"/>
</g>
<g>
	<path fill="#FFFFFF" d="M95.576,61.467c-0.135-2.114-1.015-5.697-1.73-6.463l0.849-0.79c1.096,1.177,1.921,5.359,2.038,7.18
		L95.576,61.467z"/>
</g>
<g>
	<path fill="none" stroke="#231F20" stroke-width="3" stroke-miterlimit="10" d="M100.249,60.552"/>
</g>
<g>
	<path fill="none" stroke="#231F20" stroke-width="3" stroke-miterlimit="10" d="M96.663,60.961"/>
</g>
<g>
	<g>
		<path fill="none" stroke="#FFFFFF" stroke-width="3" stroke-miterlimit="10" d="M62.872,89.363"/>
	</g>
</g>
<g>
	<path fill="none" stroke="#000000" stroke-width="3" stroke-miterlimit="10" d="M125.027,88.648"/>
</g>
<g>
	<path fill="none" stroke="#000000" stroke-width="3" stroke-miterlimit="10" d="M124.793,93.335"/>
</g>
<g>
	<path fill="none" stroke="#000000" stroke-width="3" stroke-miterlimit="10" d="M124.793,37.434"/>
</g>
<g>
	<path fill="#333333" d="M125.448,76.839l12.286-22.214c0,0-3.603,2.88-4.415,1.715c-1.593-2.284-4.504-10.016-4.504-10.016
		s0.202,2.889-0.548,2.891c-1.548,0.002-5.139-5.103-5.358-5.417c0,0,0.627,2.758,0,2.679c-3.207-0.406-6.231-2.944-5.733-2.271
		l-0.334,0.452c0,0,9.268,6.562,11.529,9.486c1.978,2.551,3.799,3.603,0.956,11.184c-1.891,5.039-5.385,4.685-5.385,4.685
		s0.522,1.332,0.952,3.129C125.448,75.452,125.448,76.839,125.448,76.839z"/>
	<path fill="#333333" d="M124.867,79.085v-2.246c0-0.013-0.009-1.36-0.537-3.564c-0.415-1.737-0.925-3.039-0.929-3.052l-0.347-0.885
		L124,69.434c0.055,0.003,3.085,0.216,4.785-4.312c2.45-6.535,1.358-7.876-0.298-9.908c-0.188-0.229-0.38-0.466-0.574-0.716
		c-2.185-2.823-11.312-9.303-11.405-9.369l-0.482-0.342l0.516-0.698c0.004-0.085,0.023-0.169,0.065-0.251l0.161-0.319l0.372-0.007
		c0.218,0,0.375,0.092,0.893,0.398c0.894,0.529,2.696,1.593,4.577,1.934c0.002-0.42-0.103-1.197-0.267-1.918l-0.658-2.895l1.7,2.435
		c1.861,2.668,3.9,4.873,4.729,5.142c0.126-0.368,0.185-1.348,0.122-2.243l-0.278-3.958l1.399,3.713
		c0.029,0.077,2.905,7.689,4.438,9.888c0.015,0.022,0.085,0.03,0.14,0.03c0.802,0,2.533-1.144,3.436-1.866l2.285-1.825
		L124.867,79.085z M124.748,70.542c0.194,0.575,0.467,1.443,0.711,2.464c0.177,0.738,0.299,1.384,0.382,1.926l10.218-18.475
		c-0.724,0.405-1.506,0.74-2.123,0.74c-0.598,0-0.924-0.286-1.093-0.526c-1.054-1.513-2.628-5.237-3.629-7.73
		c-0.074,0.228-0.172,0.424-0.301,0.562c-0.174,0.187-0.404,0.29-0.646,0.29c-0.492,0-1.835-0.415-4.508-3.854
		c-0.018,0.379-0.098,0.658-0.234,0.831c-0.149,0.186-0.357,0.288-0.59,0.288l-0.1-0.006c-0.999-0.126-1.973-0.444-2.835-0.811
		c2.943,2.194,7.327,5.606,8.829,7.548c0.188,0.243,0.375,0.472,0.557,0.694c1.771,2.173,3.169,3.889,0.482,11.047
		C128.413,69.412,126.04,70.337,124.748,70.542z"/>
</g>
<g>
	<path fill="none" stroke="#000000" stroke-width="3" stroke-miterlimit="10" d="M75.47,88.648"/>
</g>
<g>
	<path fill="none" stroke="#000000" stroke-width="3" stroke-miterlimit="10" d="M75.705,93.335"/>
</g>
<g>
	<path fill="#333333" d="M75.049,76.839L62.764,54.625c0,0,3.601,2.88,4.414,1.715c1.592-2.284,4.505-10.016,4.505-10.016
		s-0.203,2.889,0.548,2.891c1.548,0.002,5.139-5.103,5.358-5.417c0,0-0.627,2.758,0,2.679c3.207-0.406,6.23-2.944,5.733-2.271
		l0.333,0.452c0,0-9.265,6.562-11.529,9.486c-1.976,2.551-3.799,3.603-0.954,11.184c1.891,5.039,5.385,4.685,5.385,4.685
		s-0.524,1.332-0.953,3.129C75.049,75.452,75.049,76.839,75.049,76.839z"/>
	<path fill="#333333" d="M75.623,79.073L60.841,52.346l2.284,1.826c0.903,0.721,2.634,1.865,3.436,1.865
		c0.056,0,0.126-0.007,0.142-0.03c1.533-2.199,4.409-9.811,4.438-9.888l1.396-3.706l-0.275,3.951
		c-0.063,0.896-0.004,1.877,0.123,2.244c0.909-0.283,3.097-2.8,4.729-5.141l1.697-2.436l-0.655,2.895
		c-0.165,0.722-0.269,1.499-0.267,1.918c1.882-0.34,3.684-1.404,4.578-1.934c0.518-0.306,0.673-0.398,0.893-0.398h0.357l0.176,0.326
		c0.042,0.083,0.062,0.166,0.065,0.251l0.515,0.698l-0.481,0.342c-0.093,0.065-9.221,6.546-11.406,9.369
		c-0.194,0.25-0.387,0.487-0.574,0.716c-1.655,2.032-2.749,3.373-0.297,9.908c1.541,4.106,4.18,4.313,4.693,4.313
		c0.053,0,0.086-0.002,0.097-0.002l0.93-0.079l-0.336,0.868c-0.005,0.014-0.515,1.32-0.93,3.053
		c-0.527,2.205-0.537,3.552-0.537,3.564L75.623,79.073z M64.439,56.457l10.218,18.475c0.083-0.542,0.206-1.188,0.382-1.926
		c0.244-1.021,0.516-1.889,0.711-2.464c-1.294-0.205-3.666-1.13-5.122-5.012c-2.686-7.158-1.288-8.875,0.483-11.047
		c0.182-0.223,0.369-0.452,0.556-0.694c1.502-1.941,5.886-5.354,8.831-7.548c-0.863,0.367-1.837,0.685-2.835,0.811l-0.099,0.006
		c-0.232,0-0.442-0.102-0.589-0.288c-0.14-0.175-0.219-0.457-0.238-0.844c-1.357,1.732-3.277,3.867-4.503,3.867
		c-0.245,0-0.474-0.104-0.648-0.29c-0.129-0.139-0.227-0.334-0.301-0.562c-1,2.493-2.574,6.217-3.63,7.73
		c-0.167,0.24-0.492,0.526-1.092,0.526C65.945,57.197,65.162,56.862,64.439,56.457z"/>
</g>
<g>
	<path fill="#333333" d="M113.557,62.093c0,0,0.565,0.056,1.398,0.268c0.928,0.236,1.428,0.376,1.428,0.376l-1.408-6.762
		l-5.796-6.761l-1.677,0.45c0,0,6.893,6.667,6.893,8.984C114.395,60.968,113.557,62.093,113.557,62.093z"/>
	<path fill="#333333" d="M117.145,63.551l-0.917-0.256c-0.004-0.001-0.499-0.139-1.416-0.372c-0.772-0.198-1.308-0.251-1.312-0.252
		l-1.02-0.101l0.609-0.822c0.007-0.007,0.726-1.032,0.726-3.099c0-1.51-4.118-6.056-6.715-8.568l-0.735-0.711l3.017-0.812
		l6.13,7.152L117.145,63.551z M114.439,61.648c0.193,0.039,0.413,0.088,0.657,0.15c0.194,0.05,0.371,0.094,0.527,0.136l-0.65-3.123
		C114.952,60.103,114.684,61.047,114.439,61.648z M108.631,49.962c1.676,1.677,5.124,5.298,6.088,7.629l-0.279-1.352l-5.463-6.371
		L108.631,49.962z"/>
</g>
<g>
	<path fill="#333333" d="M87.205,62.161l-2.649,0.576l0.966-6.762l5.797-6.761l1.675,0.45c0,0-6.892,6.667-6.892,8.984
		C86.102,60.968,87.205,62.161,87.205,62.161z"/>
	<path fill="#333333" d="M83.864,63.48l1.107-7.754l6.145-7.168l3.015,0.812l-0.734,0.711c-2.597,2.512-6.716,7.059-6.716,8.568
		c0,2.038,0.914,3.078,0.952,3.121l0.667,0.742L83.864,63.48z M85.585,59.629l-0.338,2.364l1.009-0.219
		C85.995,61.284,85.709,60.566,85.585,59.629z M86.072,56.225l-0.162,1.133c0.602-1.288,2.126-3.602,5.953-7.397l-0.342-0.092
		L86.072,56.225z"/>
</g>
<g>
	<path fill="#333333" stroke="#000000" stroke-width="3" stroke-miterlimit="10" d="M115.022,62.361"/>
</g>
<g>
	<path fill="#333333" d="M118.366,119.356c0,0,1.478-1.733,2.754-3.548c0.979-1.396,1.905-3.284,1.905-3.284
		s12.232,11.896,11.773,19.243c-0.455,7.349-8.207,19.661-8.207,19.661l-0.962-4.511l-4.055,0.456c0,0,9.27-8.31,8.434-16.417
		C129.175,122.849,118.366,119.356,118.366,119.356z"/>
	<path fill="#333333" d="M126.322,152.944l-1.15-5.393l-5.332,0.601l1.349-1.21c0.089-0.082,9.038-8.211,8.244-15.928
		c-0.784-7.63-11.142-11.074-11.245-11.106l-0.828-0.269l0.566-0.659c0.012-0.017,1.477-1.734,2.718-3.506
		c0.944-1.342,1.852-3.188,1.859-3.205l0.355-0.719l0.571,0.559c0.506,0.493,12.417,12.169,11.949,19.694
		c-0.461,7.41-7.979,19.425-8.297,19.931L126.322,152.944z M126.087,146.283l0.767,3.592c1.944-3.294,7.01-12.376,7.367-18.144
		c0.38-6.118-8.684-15.815-11.045-18.233c-0.365,0.691-0.961,1.757-1.583,2.643c-0.816,1.165-1.707,2.281-2.257,2.954
		c1.027,0.402,2.912,1.229,4.862,2.539c3.818,2.57,6.028,5.771,6.389,9.264c0.36,3.507-0.988,7.425-4.01,11.645
		c-1.242,1.733-2.504,3.144-3.395,4.067L126.087,146.283z"/>
</g>
<g>
	<path fill="#333333" d="M82.133,119.356c0,0-1.48-1.733-2.755-3.548c-0.979-1.396-1.906-3.284-1.906-3.284
		s-12.231,11.896-11.774,19.243c0.455,7.349,8.208,19.661,8.208,19.661l0.962-4.511l4.054,0.456c0,0-9.269-8.31-8.435-16.417
		C71.322,122.849,82.133,119.356,82.133,119.356z"/>
	<path fill="#333333" d="M74.175,152.944l-0.761-1.21c-0.319-0.506-7.836-12.521-8.296-19.931
		c-0.467-7.525,11.442-19.201,11.949-19.694l0.572-0.559l0.353,0.719c0.009,0.018,0.919,1.866,1.86,3.205
		c1.244,1.773,2.705,3.489,2.72,3.506l0.563,0.659l-0.826,0.269c-0.104,0.032-10.461,3.477-11.246,11.106
		c-0.794,7.717,8.154,15.846,8.245,15.928l1.348,1.208l-5.331-0.599L74.175,152.944z M77.32,113.498
		c-2.362,2.418-11.425,12.115-11.045,18.233c0.358,5.771,5.424,14.851,7.369,18.144l0.767-3.592l2.903,0.326
		c-0.891-0.924-2.153-2.334-3.394-4.067c-3.022-4.22-4.372-8.138-4.01-11.645c0.359-3.492,2.568-6.693,6.389-9.264
		c1.951-1.311,3.835-2.137,4.861-2.539c-0.55-0.673-1.439-1.789-2.256-2.954C78.281,115.255,77.687,114.189,77.32,113.498z"/>
</g>
<g>
	<circle fill="#333333" cx="100.249" cy="27.256" r="24.044"/>
</g>
<g>
	<circle fill="#FFFFFF" cx="100.249" cy="27.256" r="22.966"/>
</g>
<g>
	<circle fill="#333333" cx="100.248" cy="27.256" r="21.305"/>
</g>
<g>
	<path fill="#333333" d="M99.958,149.68c20.637,0,38.444,12.09,46.743,29.57h2.666c-8.468-18.857-27.399-31.999-49.409-31.999
		c-22.011,0-40.941,13.142-49.408,31.999h2.666C61.514,161.77,79.322,149.68,99.958,149.68z"/>
	<path fill="#FFFFFF" d="M99.958,149.68c-20.637,0-38.445,12.09-46.742,29.57h4.183c8.003-15.348,24.053-25.833,42.56-25.833
		c18.506,0,34.556,10.485,42.56,25.833h4.183C138.402,161.77,120.596,149.68,99.958,149.68z"/>
	<path fill="#333333" d="M99.958,153.417c-18.507,0-34.556,10.485-42.56,25.833h85.12
		C134.515,163.902,118.465,153.417,99.958,153.417z"/>
</g>
</svg>
