<?xml version="1.0" encoding="utf-8"?>
<!-- Generator: Adobe Illustrator 16.0.4, SVG Export Plug-In . SVG Version: 6.00 Build 0)  -->
<!DOCTYPE svg PUBLIC "-//W3C//DTD SVG 1.1//EN" "http://www.w3.org/Graphics/SVG/1.1/DTD/svg11.dtd">
<svg version="1.1" id="Layer_1" xmlns="http://www.w3.org/2000/svg" xmlns:xlink="http://www.w3.org/1999/xlink" x="0px" y="0px"
	 width="200px" height="179.25px" viewBox="0 0 200 179.25" enable-background="new 0 0 200 179.25" xml:space="preserve">
<g>
	<path fill="#333333" d="M123.223,80.224l-21.158,5.291v40.504c0,0,20.705-4.082,21.158-22.896
		C123.674,84.305,123.223,80.224,123.223,80.224z"/>
	<path fill="#333333" d="M101.482,126.727V85.062l22.242-5.561l0.073,0.659c0.019,0.167,0.452,4.334,0.003,22.976
		c-0.134,5.505-2.152,13.265-11.015,18.979c-5.267,3.394-10.396,4.433-10.613,4.474L101.482,126.727z M102.643,85.967v39.32
		c1.568-0.4,5.564-1.596,9.547-4.168c6.754-4.363,10.271-10.422,10.451-18.012c0.354-14.683,0.155-20.39,0.053-22.153
		L102.643,85.967z"/>
</g>
<g>
	<path fill="#333333" d="M100.249,81.887l-22.973-5.289c0,0,0.302-11.185,8.766-12.544c2.128-0.342,4.083-0.632,5.819-0.875
		c0.379-0.053,0.747-0.103,1.105-0.152c0,0,5.457-0.289,7.283-0.289c1.828,0,7.282,0.289,7.282,0.289
		c0.359,0.049,0.728,0.1,1.107,0.152c1.734,0.243,3.689,0.533,5.815,0.875c8.466,1.36,8.769,12.544,8.769,12.544L100.249,81.887z"/>
	<path fill="#333333" d="M100.249,82.482l-0.129-0.031l-23.436-5.396l0.013-0.473c0.003-0.117,0.417-11.681,9.254-13.101
		c1.968-0.316,3.929-0.611,5.831-0.876l1.155-0.157c0.223-0.012,5.492-0.291,7.313-0.291c1.82,0,7.09,0.278,7.314,0.291l0.047,0.004
		l1.106,0.153c1.9,0.266,3.862,0.56,5.829,0.876c8.838,1.42,9.253,12.984,9.256,13.101l0.012,0.473L100.249,82.482z M77.885,76.143
		l22.363,5.148l22.363-5.148c-0.18-2.082-1.321-10.404-8.248-11.518c-1.961-0.314-3.913-0.608-5.807-0.873l-1.08-0.149
		c-0.399-0.021-5.5-0.287-7.229-0.287c-1.729,0-6.83,0.267-7.228,0.287l-1.081,0.149c-1.893,0.265-3.847,0.559-5.806,0.873
		C79.197,65.74,78.061,74.061,77.885,76.143z"/>
</g>
<g>
	<path fill="#333333" d="M77.276,80.224l21.159,5.291v40.504c0,0-20.706-4.082-21.159-22.896
		C76.823,84.305,77.276,80.224,77.276,80.224z"/>
	<path fill="#333333" d="M99.015,126.727l-0.692-0.139c-0.216-0.041-5.345-1.08-10.611-4.474
		c-4.892-3.152-10.774-9.005-11.015-18.979C76.248,84.494,76.682,80.327,76.7,80.16l0.074-0.659l22.242,5.561L99.015,126.727
		L99.015,126.727z M77.805,80.955c-0.102,1.771-0.303,7.504,0.05,22.152c0.39,16.211,16.442,21.26,20,22.179V85.967L77.805,80.955z"
		/>
</g>
<g>
	<path fill="none" stroke="#231F20" stroke-width="3" stroke-miterlimit="10" d="M100.249,60.552"/>
</g>
<g>
	<path fill="none" stroke="#231F20" stroke-width="3" stroke-miterlimit="10" d="M103.835,60.961"/>
</g>
<g>
	<path fill="#333333" d="M88.947,61.441l-0.047,0.84l0.804-0.255c0.021-0.007,1.697-0.52,5.855-0.766
		c-0.155-1.887-0.834-4.745-1.468-5.895C92.688,56.094,89.132,58.248,88.947,61.441z"/>
	<path fill="#333333" d="M105.081,54.534c-0.31-0.395-0.733-0.935-1.498-0.969l-0.074-0.003c-0.347,0-0.64,0.107-0.95,0.221
		c-0.486,0.178-1.092,0.399-2.311,0.399c-1.22,0-1.825-0.221-2.311-0.399c-0.309-0.114-0.603-0.221-0.949-0.221l-0.076,0.003
		c-0.765,0.034-1.19,0.574-1.499,0.969c-0.107,0.136-0.197,0.245-0.281,0.33c0.84,1.58,1.451,4.706,1.585,6.338
		c1.045-0.043,2.212-0.071,3.532-0.071c1.318,0,2.485,0.028,3.53,0.071c0.134-1.631,0.745-4.756,1.586-6.337
		C105.279,54.78,105.189,54.671,105.081,54.534z"/>
	<path fill="#333333" d="M111.548,61.441c-0.185-3.191-3.737-5.345-5.141-6.076c-0.634,1.152-1.312,4.009-1.468,5.895
		c4.147,0.246,5.825,0.757,5.854,0.766l0.806,0.26L111.548,61.441z"/>
</g>
<g>
	<path fill="none" stroke="#231F20" stroke-width="3" stroke-miterlimit="10" d="M100.249,60.552"/>
</g>
<g>
	<path fill="none" stroke="#231F20" stroke-width="3" stroke-miterlimit="10" d="M96.663,60.961"/>
</g>
<g>
	<path fill="none" stroke="#000000" stroke-width="3" stroke-miterlimit="10" d="M125.027,88.648"/>
</g>
<g>
	<path fill="none" stroke="#000000" stroke-width="3" stroke-miterlimit="10" d="M124.793,93.335"/>
</g>
<g>
	<path fill="none" stroke="#000000" stroke-width="3" stroke-miterlimit="10" d="M124.793,37.434"/>
</g>
<path fill="#333333" d="M139.656,52.347l-2.285,1.825c-0.903,0.722-2.635,1.866-3.436,1.866c-0.056,0-0.125-0.008-0.141-0.03
	c-1.533-2.199-4.408-9.811-4.438-9.888l-1.399-3.713l0.278,3.958c0.062,0.895,0.004,1.875-0.122,2.243
	c-0.829-0.269-2.868-2.474-4.729-5.142l-1.699-2.435l0.657,2.895c0.164,0.721,0.269,1.498,0.267,1.918
	c-1.881-0.341-3.683-1.405-4.576-1.934c-0.518-0.306-0.676-0.398-0.893-0.398l-0.373,0.007l-0.16,0.319
	c-0.043,0.082-0.062,0.166-0.065,0.251l-0.517,0.698l0.482,0.342c0.094,0.066,9.221,6.546,11.405,9.369
	c0.194,0.25,0.386,0.487,0.573,0.716c1.656,2.032,2.748,3.373,0.299,9.908c-1.7,4.528-4.73,4.315-4.785,4.312l-0.945-0.096
	l0.346,0.885c0.004,0.013,0.515,1.315,0.93,3.052c0.527,2.204,0.537,3.551,0.537,3.564v2.246L139.656,52.347z"/>
<g>
	<path fill="none" stroke="#000000" stroke-width="3" stroke-miterlimit="10" d="M75.47,88.648"/>
</g>
<g>
	<path fill="none" stroke="#000000" stroke-width="3" stroke-miterlimit="10" d="M75.705,93.335"/>
</g>
<path fill="#333333" d="M72.586,54.498c2.185-2.823,11.313-9.304,11.406-9.369l0.481-0.342l-0.515-0.698
	c-0.003-0.085-0.023-0.168-0.065-0.251l-0.176-0.326H83.36c-0.22,0-0.375,0.092-0.893,0.398c-0.894,0.53-2.696,1.594-4.578,1.934
	c-0.002-0.419,0.102-1.196,0.267-1.918l0.655-2.895l-1.697,2.436c-1.632,2.341-3.82,4.858-4.729,5.141
	c-0.127-0.367-0.186-1.348-0.123-2.244l0.275-3.951l-1.396,3.706c-0.029,0.077-2.905,7.689-4.438,9.888
	c-0.016,0.023-0.086,0.03-0.142,0.03c-0.802,0-2.533-1.144-3.436-1.865l-2.284-1.826l14.782,26.727l0.009-2.234
	c0-0.012,0.01-1.359,0.537-3.564c0.415-1.733,0.925-3.039,0.93-3.053l0.336-0.868l-0.93,0.079c-0.011,0-0.044,0.002-0.097,0.002
	c-0.513,0-3.152-0.207-4.693-4.313c-2.452-6.535-1.358-7.876,0.297-9.908C72.199,54.985,72.392,54.748,72.586,54.498z"/>
<path fill="#333333" d="M115.512,55.71l-6.13-7.152l-3.017,0.812l0.734,0.711c2.598,2.512,6.715,7.058,6.715,8.568
	c0,2.067-0.719,3.092-0.726,3.099l-0.608,0.822l1.02,0.101c0.004,0.001,0.54,0.054,1.312,0.252c0.916,0.233,1.412,0.371,1.416,0.372
	l0.916,0.256L115.512,55.71z"/>
<path fill="#333333" d="M91.116,48.558l-6.145,7.168l-1.107,7.754l4.436-0.968l-0.667-0.742c-0.038-0.043-0.952-1.083-0.952-3.121
	c0-1.509,4.119-6.056,6.716-8.568l0.734-0.711L91.116,48.558z"/>
<g>
	<path fill="#333333" stroke="#000000" stroke-width="3" stroke-miterlimit="10" d="M115.021,62.361"/>
</g>
<g>
	<path fill="#333333" d="M118.366,119.355c0,0,1.478-1.732,2.754-3.547c0.979-1.396,1.905-3.285,1.905-3.285
		s12.231,11.896,11.772,19.244c-0.455,7.349-8.207,19.66-8.207,19.66l-0.962-4.511l-4.055,0.456c0,0,9.27-8.311,8.434-16.417
		C129.175,122.85,118.366,119.355,118.366,119.355z"/>
	<path fill="#333333" d="M126.322,152.943l-1.15-5.393l-5.332,0.602l1.35-1.211c0.088-0.082,9.037-8.211,8.244-15.928
		c-0.785-7.63-11.143-11.074-11.246-11.105l-0.828-0.27l0.566-0.658c0.012-0.018,1.477-1.734,2.719-3.506
		c0.943-1.343,1.852-3.188,1.858-3.205l0.354-0.72l0.572,0.56c0.506,0.492,12.416,12.168,11.948,19.693
		c-0.461,7.41-7.979,19.426-8.297,19.932L126.322,152.943z M126.087,146.283l0.767,3.592c1.944-3.294,7.01-12.376,7.367-18.145
		c0.381-6.117-8.684-15.814-11.045-18.232c-0.365,0.691-0.961,1.757-1.583,2.643c-0.815,1.166-1.706,2.281-2.257,2.955
		c1.027,0.401,2.912,1.229,4.862,2.538c3.817,2.57,6.028,5.771,6.389,9.265c0.36,3.507-0.987,7.425-4.01,11.645
		c-1.242,1.732-2.504,3.145-3.396,4.066L126.087,146.283z"/>
</g>
<g>
	<path fill="#333333" d="M82.133,119.355c0,0-1.48-1.732-2.755-3.547c-0.979-1.396-1.906-3.285-1.906-3.285
		s-12.231,11.896-11.774,19.244c0.455,7.349,8.208,19.66,8.208,19.66l0.962-4.511l4.054,0.456c0,0-9.269-8.311-8.435-16.417
		C71.322,122.85,82.133,119.355,82.133,119.355z"/>
	<path fill="#333333" d="M74.175,152.943l-0.761-1.209c-0.319-0.506-7.836-12.521-8.296-19.932
		c-0.467-7.525,11.442-19.201,11.949-19.693l0.572-0.56l0.353,0.72c0.009,0.018,0.919,1.865,1.86,3.205
		c1.244,1.772,2.705,3.488,2.72,3.506l0.563,0.658l-0.826,0.27c-0.104,0.031-10.461,3.477-11.246,11.105
		c-0.794,7.717,8.154,15.846,8.245,15.928l1.348,1.209l-5.331-0.6L74.175,152.943z M77.32,113.498
		c-2.362,2.418-11.425,12.115-11.045,18.232c0.358,5.771,5.424,14.852,7.369,18.145l0.767-3.592l2.903,0.326
		c-0.891-0.924-2.153-2.334-3.394-4.067c-3.022-4.22-4.372-8.138-4.01-11.646c0.359-3.492,2.568-6.692,6.389-9.264
		c1.951-1.311,3.835-2.137,4.861-2.539c-0.55-0.673-1.439-1.789-2.256-2.953C78.281,115.255,77.687,114.189,77.32,113.498z"/>
</g>
<g>
	<path fill="#333333" d="M100.249,3.212c-13.279,0-24.044,10.765-24.044,24.044c0,13.279,10.765,24.044,24.044,24.044
		s24.044-10.765,24.044-24.044C124.293,13.977,113.528,3.212,100.249,3.212z M100.249,50.222c-12.684,0-22.966-10.282-22.966-22.966
		c0-12.684,10.282-22.966,22.966-22.966s22.966,10.282,22.966,22.966C123.215,39.94,112.933,50.222,100.249,50.222z"/>
</g>
<g>
	<circle fill="#333333" cx="100.248" cy="27.256" r="21.305"/>
</g>
<g>
	<path fill="#333333" d="M99.958,149.68c20.638,0,38.444,12.09,46.743,29.57h2.666c-8.469-18.857-27.399-31.999-49.409-31.999
		c-22.011,0-40.941,13.142-49.408,31.999h2.666C61.514,161.77,79.322,149.68,99.958,149.68z"/>
	<path fill="#333333" d="M99.958,153.417c-18.507,0-34.556,10.485-42.56,25.833h85.12
		C134.516,163.902,118.465,153.417,99.958,153.417z"/>
</g>
<g>
	<path fill="#333333" d="M133.456,94.377c0.431,0.939,0.73,1.604,0.836,2.109h4.075c-0.617-1.125-2.058-3.756-3.496-6.393
		c-0.952-1.742-1.9-3.484-2.612-4.793c-0.562-1.04-0.885-1.636-1.053-1.997c-0.842-0.017-1.57-0.033-2.14-0.045
		c0.591,1.403,2.132,5.115,2.734,7.005C132.316,91.884,132.948,93.268,133.456,94.377z"/>
	<path fill="#333333" d="M144.816,94.029c0.985,1.387,1.442,2.079,1.645,2.457h1.589c1.405,0,2.565,0.009,3.562,0.018
		c-0.683-1.09-2.304-3.456-4.269-4.83c-2.632-1.845-4.925-5.849-5.271-8.214c-1.542-0.009-3.211-0.028-4.851-0.051
		c0.845,1.448,3.543,5.801,4.726,6.982C142.828,91.271,144.248,93.229,144.816,94.029z"/>
	<path fill="#333333" d="M132.753,94.698c-0.519-1.128-1.161-2.535-1.69-4.202c-0.634-1.998-2.409-6.231-2.843-7.256
		c-0.071-0.001-0.138-0.003-0.192-0.004c-1.158,3.291,0.588,11.578,0.96,13.251h2.446h2.067
		C133.371,96.052,133.07,95.391,132.753,94.698z"/>
	<path fill="#333333" d="M145.557,96.486c-0.81-1.258-3.05-4.445-4.158-5.551c-1.298-1.301-4.451-6.382-5.062-7.541
		c-1.522-0.023-2.989-0.05-4.267-0.075c1.025,1.922,4.622,8.504,7.178,13.166H145.557z"/>
	<path fill="#333333" d="M155.159,100.561c-0.849-1.845-1.274-2.771-1.466-3.266c-0.491-0.002-1.029-0.008-1.635-0.014
		c-1.046-0.012-2.302-0.023-3.838-0.024c1.728,2.168,3.453,8.147,4.406,11.874c2.326,0.008,4.535,0.016,6.507,0.022
		c-0.277-0.598-0.586-1.262-0.903-1.945C157.251,105.098,156.078,102.57,155.159,100.561z"/>
	<path fill="#333333" d="M166.499,92.772l-17.548-9.505c-0.659,0.119-1.264,0.145-1.737,0.159c0.194,2.113,2.286,3.401,5.167,5.147
		c1.303,0.787,2.771,1.68,4.255,2.773c3.492,2.578,3.824,3.767,3.856,4.383c0.729-0.184,1.564-0.406,2.574-0.681
		C164.304,94.715,165.451,93.948,166.499,92.772z"/>
	<path fill="#333333" d="M166.115,94.229c1.692,1.428,7.698,6.905,7.766,6.969c2.955,2.694,4.807,4.407,5.971,5.509
		c2.767-1.266,5.505-3.179,7.689-6.037l-18.786-9.74C167.954,92.308,167.072,93.408,166.115,94.229z"/>
	<path fill="#333333" d="M142.854,83.463c0.357,2.032,2.39,5.796,4.933,7.576c2.418,1.693,4.271,4.679,4.738,5.474
		c0.526,0.005,1.004,0.009,1.438,0.01l0.078-0.024l-0.007,0.024c2.322,0.003,3.514-0.091,5.692-0.604c0-0.002,0-0.005,0-0.007
		c0-0.363-0.004-1.325-3.55-3.942c-1.456-1.072-2.911-1.956-4.194-2.735c-2.988-1.808-5.345-3.259-5.545-5.789
		C145.461,83.464,144.227,83.468,142.854,83.463z"/>
	<path fill="#333333" d="M188.004,100.041c0.104-0.147,0.217-0.278,0.316-0.43c0.907-1.376,1.711-2.617,2.432-3.748l-8.454,1.219
		L188.004,100.041z"/>
	<path fill="#333333" d="M158.932,106.881c0.447,0.963,0.788,1.698,1.055,2.275c1.484,0.005,2.808,0.009,3.921,0.013
		c-1.841-1.778-4.331-3.879-5.847-4.165C158.368,105.668,158.665,106.307,158.932,106.881z"/>
	<path fill="#333333" d="M196.366,85.06c-0.503-0.754-2.433-2.08-9.699-2.49c-3.107-0.176-8.438-0.406-14.683-0.651
		c-0.18,0.867-0.448,2.001-0.822,3.249c3.065,0.618,17.055,4.678,22.357,6.229c2.34-3.91,2.906-5.303,2.912-5.322l0.041-0.082
		C196.479,85.984,196.71,85.576,196.366,85.06z"/>
	<path fill="#333333" d="M169.13,90.254l11.988,6.217l10.179-1.468c0.687-1.087,1.291-2.062,1.812-2.921
		c-5.478-1.599-19.398-5.634-22.178-6.172C170.474,87.323,169.882,88.833,169.13,90.254z"/>
	<polygon fill="#333333" points="131.434,97.258 131.434,97.257 131.431,97.257 	"/>
	<path fill="#333333" d="M170.394,85.021c0.36-1.195,0.622-2.282,0.804-3.134c-5.835-0.228-12.4-0.468-18.671-0.69
		c-0.021,0.027-0.043,0.054-0.064,0.08L170.394,85.021z"/>
	<path fill="#333333" d="M131.985,97.257c0.609,2.007,1.851,8.187,1.966,11.814c1.649,0.006,3.426,0.011,5.273,0.017
		c-0.542-2.92-1.877-8.091-2.918-11.831H131.985z"/>
	<path fill="#333333" d="M127.097,83.761l-2.268,1.537c0.004,1.558,0.001,3.356-0.019,5.237c-0.028,2.79-0.032,5.744-0.061,8.308
		c1.201-0.837,2.773-1.756,3.488-2.164C127.886,95.113,126.297,87.654,127.097,83.761z"/>
	<path fill="#333333" d="M127.771,82.455c0.145,0.004,14.572,0.348,19.348,0.201c1.611-0.048,3.209-0.307,4.413-1.494
		c-13.229-0.467-24.878-0.848-25.116-0.856l-1.629-0.039c0,0,0.027,1.646,0.039,4.097l2.822-1.912L127.771,82.455z"/>
	<path fill="#333333" d="M163.27,95.795c-0.906,0.246-1.672,0.449-2.354,0.623c0.556,0.748,1.763,2.531,4.579,6.907
		c0.404,0.628,0.771,1.197,1.108,1.722c3.253,0.023,6.907,1.896,8.97,3.175c1.136-0.295,2.32-0.684,3.514-1.18
		c-3.9-3.67-12.188-11.16-13.582-12.327C164.796,95.22,164.051,95.583,163.27,95.795z"/>
	<path fill="#333333" d="M137.108,97.257c0.546,1.971,2.27,8.304,2.898,11.834c1.543,0.005,3.128,0.01,4.72,0.015
		c-0.624-3.532-2.41-9.165-3.329-11.849H137.108z"/>
	<path fill="#333333" d="M166.09,105.822l-0.01-0.157c-2.447-3.821-5.304-8.222-5.974-9.048c-2.232,0.535-3.469,0.664-5.582,0.678
		c0.517,1.181,1.894,4.165,3.161,6.9c0.838-0.01,1.95,0.487,3.379,1.519c1.318,0.946,2.81,2.298,3.967,3.46
		c1.37,0.005,2.254,0.008,2.47,0.01c0.042,0,0.251,0.01,0.623,0.01c0.06,0,0.14-0.002,0.205-0.003
		c-0.609-0.96-1.354-2.129-2.148-3.368C166.151,105.823,166.119,105.82,166.09,105.822z"/>
	<path fill="#333333" d="M147.161,97.279l0.015-0.022h-0.911l-0.053,0.001v-0.001h-3.999c0.613,1.814,2.63,7.932,3.287,11.852
		c2.132,0.007,4.266,0.014,6.321,0.021C150.651,104.637,148.721,98.316,147.161,97.279z"/>
	<path fill="#333333" d="M169.236,109.166c1.321-0.056,3.173-0.225,5.279-0.688c-1.93-1.107-4.822-2.45-7.404-2.639
		C168.118,107.405,168.789,108.455,169.236,109.166z"/>
	<path fill="#333333" d="M167.004,92.167c0.409-0.528,0.803-1.121,1.178-1.782c0.836-1.472,1.483-3.101,1.979-4.623l-18.324-3.824
		c-0.565,0.497-1.18,0.826-1.788,1.044L167.004,92.167z"/>
	<path fill="#333333" d="M129.115,97.257c0.216,1.727,0.979,8.023,1.212,11.803c0.887,0.003,1.843,0.006,2.854,0.01
		c-0.115-3.825-1.576-10.605-1.994-11.812H129.115z"/>
	<path fill="#333333" d="M124.736,99.797c-0.018,1.25-0.043,2.394-0.084,3.326c-0.164,3.822-0.67,5.917-0.67,5.917
		s2.185,0.007,5.57,0.018c-0.229-3.626-0.955-9.688-1.186-11.562C127.169,98.188,125.658,99.118,124.736,99.797z"/>
	
		<line fill="none" stroke="#FFFFFF" stroke-width="0" stroke-linecap="round" stroke-linejoin="round" x1="170.047" y1="110.5" x2="170.064" y2="110.486"/>
	
		<line fill="none" stroke="#FFFFFF" stroke-width="0" stroke-linecap="round" stroke-linejoin="round" x1="170.05" y1="110.505" x2="170.068" y2="110.493"/>
</g>
<g>
	<path fill="#333333" d="M67.04,94.377c-0.431,0.939-0.73,1.604-0.836,2.109h-4.075c0.617-1.125,2.058-3.756,3.496-6.393
		c0.952-1.742,1.9-3.484,2.612-4.793c0.562-1.04,0.885-1.636,1.053-1.997c0.842-0.017,1.57-0.033,2.14-0.045
		c-0.591,1.403-2.132,5.115-2.734,7.005C68.18,91.884,67.548,93.268,67.04,94.377z"/>
	<path fill="#333333" d="M55.68,94.029c-0.985,1.387-1.442,2.079-1.645,2.457h-1.589c-1.405,0-2.565,0.009-3.562,0.018
		c0.683-1.09,2.304-3.456,4.269-4.83c2.632-1.845,4.925-5.849,5.271-8.214c1.542-0.009,3.211-0.028,4.851-0.051
		c-0.845,1.448-3.543,5.801-4.726,6.982C57.668,91.271,56.248,93.229,55.68,94.029z"/>
	<path fill="#333333" d="M67.743,94.698c0.519-1.128,1.161-2.535,1.69-4.202c0.634-1.998,2.409-6.231,2.843-7.256
		c0.071-0.001,0.138-0.003,0.192-0.004c1.158,3.291-0.588,11.578-0.96,13.251h-2.446h-2.067
		C67.125,96.052,67.426,95.391,67.743,94.698z"/>
	<path fill="#333333" d="M54.939,96.486c0.81-1.258,3.05-4.445,4.158-5.551c1.298-1.301,4.451-6.382,5.062-7.541
		c1.522-0.023,2.989-0.05,4.267-0.075c-1.025,1.922-4.622,8.504-7.178,13.166H54.939z"/>
	<path fill="#333333" d="M45.337,100.561c0.849-1.845,1.274-2.771,1.466-3.266c0.491-0.002,1.029-0.008,1.635-0.014
		c1.046-0.012,2.302-0.023,3.838-0.024c-1.728,2.168-3.453,8.147-4.406,11.874c-2.326,0.008-4.535,0.016-6.507,0.022
		c0.277-0.598,0.586-1.262,0.903-1.945C43.245,105.098,44.418,102.57,45.337,100.561z"/>
	<path fill="#333333" d="M33.997,92.772l17.548-9.505c0.659,0.119,1.264,0.145,1.737,0.159c-0.194,2.113-2.286,3.401-5.167,5.147
		c-1.303,0.787-2.771,1.68-4.255,2.773c-3.492,2.578-3.824,3.767-3.856,4.383c-0.729-0.184-1.564-0.406-2.574-0.681
		C36.192,94.715,35.045,93.948,33.997,92.772z"/>
	<path fill="#333333" d="M34.381,94.229c-1.692,1.428-7.698,6.905-7.766,6.969c-2.955,2.694-4.807,4.407-5.971,5.509
		c-2.767-1.266-5.505-3.179-7.689-6.037l18.786-9.74C32.542,92.308,33.424,93.408,34.381,94.229z"/>
	<path fill="#333333" d="M57.642,83.463c-0.357,2.032-2.39,5.796-4.933,7.576c-2.418,1.693-4.271,4.679-4.738,5.474
		c-0.526,0.005-1.004,0.009-1.438,0.01l-0.078-0.024l0.007,0.024c-2.322,0.003-3.514-0.091-5.692-0.604c0-0.002,0-0.005,0-0.007
		c0-0.363,0.004-1.325,3.55-3.942c1.456-1.072,2.911-1.956,4.194-2.735c2.988-1.808,5.345-3.259,5.545-5.789
		C55.035,83.464,56.27,83.468,57.642,83.463z"/>
	<path fill="#333333" d="M12.492,100.041c-0.104-0.147-0.217-0.278-0.316-0.43c-0.907-1.376-1.711-2.617-2.432-3.748l8.454,1.219
		L12.492,100.041z"/>
	<path fill="#333333" d="M41.564,106.881c-0.447,0.963-0.788,1.698-1.055,2.275c-1.484,0.005-2.808,0.009-3.921,0.013
		c1.841-1.778,4.331-3.879,5.847-4.165C42.128,105.668,41.831,106.307,41.564,106.881z"/>
	<path fill="#333333" d="M4.13,85.06c0.503-0.754,2.433-2.08,9.699-2.49c3.107-0.176,8.438-0.406,14.683-0.651
		c0.18,0.867,0.448,2.001,0.822,3.249c-3.065,0.618-17.055,4.678-22.357,6.229c-2.34-3.91-2.906-5.303-2.912-5.322l-0.041-0.082
		C4.018,85.984,3.786,85.576,4.13,85.06z"/>
	<path fill="#333333" d="M31.366,90.254l-11.988,6.217L9.199,95.003c-0.687-1.087-1.291-2.062-1.812-2.921
		c5.478-1.599,19.398-5.634,22.178-6.172C30.022,87.323,30.614,88.833,31.366,90.254z"/>
	<polygon fill="#333333" points="69.062,97.258 69.062,97.257 69.065,97.257 	"/>
	<path fill="#333333" d="M30.103,85.021c-0.36-1.195-0.622-2.282-0.804-3.134c5.835-0.228,12.4-0.468,18.671-0.69
		c0.021,0.027,0.043,0.054,0.064,0.08L30.103,85.021z"/>
	<path fill="#333333" d="M68.511,97.257c-0.609,2.007-1.851,8.187-1.966,11.814c-1.649,0.006-3.426,0.011-5.273,0.017
		c0.542-2.92,1.877-8.091,2.918-11.831H68.511z"/>
	<path fill="#333333" d="M73.399,83.761l2.268,1.537c-0.004,1.558-0.001,3.356,0.019,5.237c0.028,2.79,0.032,5.744,0.061,8.308
		c-1.201-0.837-2.773-1.756-3.488-2.164C72.61,95.113,74.199,87.654,73.399,83.761z"/>
	<path fill="#333333" d="M72.725,82.455c-0.145,0.004-14.572,0.348-19.348,0.201c-1.611-0.048-3.209-0.307-4.413-1.494
		c13.229-0.467,24.878-0.848,25.116-0.856l1.629-0.039c0,0-0.027,1.646-0.039,4.097l-2.822-1.912L72.725,82.455z"/>
	<path fill="#333333" d="M37.227,95.795c0.906,0.246,1.672,0.449,2.354,0.623c-0.556,0.748-1.763,2.531-4.579,6.907
		c-0.404,0.628-0.771,1.197-1.108,1.722c-3.253,0.023-6.907,1.896-8.97,3.175c-1.136-0.295-2.32-0.684-3.514-1.18
		c3.9-3.67,12.188-11.16,13.582-12.327C35.7,95.22,36.445,95.583,37.227,95.795z"/>
	<path fill="#333333" d="M63.388,97.257c-0.546,1.971-2.27,8.304-2.898,11.834c-1.543,0.005-3.128,0.01-4.72,0.015
		c0.624-3.532,2.41-9.165,3.329-11.849H63.388z"/>
	<path fill="#333333" d="M34.406,105.822l0.01-0.157c2.447-3.821,5.304-8.222,5.974-9.048c2.232,0.535,3.469,0.664,5.582,0.678
		c-0.517,1.181-1.894,4.165-3.161,6.9c-0.838-0.01-1.95,0.487-3.379,1.519c-1.318,0.946-2.81,2.298-3.967,3.46
		c-1.37,0.005-2.254,0.008-2.47,0.01c-0.042,0-0.251,0.01-0.623,0.01c-0.06,0-0.14-0.002-0.205-0.003
		c0.609-0.96,1.354-2.129,2.148-3.368C34.345,105.823,34.377,105.82,34.406,105.822z"/>
	<path fill="#333333" d="M53.335,97.279l-0.015-0.022h0.911l0.053,0.001v-0.001h3.999c-0.613,1.814-2.63,7.932-3.287,11.852
		c-2.132,0.007-4.266,0.014-6.321,0.021C49.845,104.637,51.775,98.316,53.335,97.279z"/>
	<path fill="#333333" d="M31.26,109.166c-1.321-0.056-3.173-0.225-5.279-0.688c1.93-1.107,4.822-2.45,7.404-2.639
		C32.378,107.405,31.707,108.455,31.26,109.166z"/>
	<path fill="#333333" d="M33.492,92.167c-0.409-0.528-0.803-1.121-1.178-1.782c-0.836-1.472-1.483-3.101-1.979-4.623l18.324-3.824
		c0.565,0.497,1.18,0.826,1.788,1.044L33.492,92.167z"/>
	<path fill="#333333" d="M71.381,97.257c-0.216,1.727-0.979,8.023-1.212,11.803c-0.887,0.003-1.843,0.006-2.854,0.01
		c0.115-3.825,1.576-10.605,1.994-11.812H71.381z"/>
	<path fill="#333333" d="M75.76,99.797c0.018,1.25,0.043,2.394,0.084,3.326c0.164,3.822,0.67,5.917,0.67,5.917
		s-2.185,0.007-5.57,0.018c0.229-3.626,0.955-9.688,1.186-11.562C73.327,98.188,74.838,99.118,75.76,99.797z"/>
	
		<line fill="none" stroke="#FFFFFF" stroke-width="0" stroke-linecap="round" stroke-linejoin="round" x1="30.449" y1="110.5" x2="30.432" y2="110.486"/>
	
		<line fill="none" stroke="#FFFFFF" stroke-width="0" stroke-linecap="round" stroke-linejoin="round" x1="30.446" y1="110.505" x2="30.428" y2="110.493"/>
</g>
</svg>
