<?xml version="1.0" encoding="utf-8"?>
<!-- Generator: Adobe Illustrator 16.0.4, SVG Export Plug-In . SVG Version: 6.00 Build 0)  -->
<!DOCTYPE svg PUBLIC "-//W3C//DTD SVG 1.1//EN" "http://www.w3.org/Graphics/SVG/1.1/DTD/svg11.dtd">
<svg version="1.1" id="Layer_1" xmlns="http://www.w3.org/2000/svg" xmlns:xlink="http://www.w3.org/1999/xlink" x="0px" y="0px"
	 width="150px" height="200px" viewBox="0 0 150 200" enable-background="new 0 0 150 200" xml:space="preserve">
<g>
	<path fill="#333333" d="M133.943,74.42L79.212,88.104v104.778c0,0,53.561-10.559,54.731-59.231
		C135.114,84.976,133.943,74.42,133.943,74.42z"/>
	<path fill="#333333" d="M77.71,194.706V86.934l57.535-14.383l0.192,1.704c0.046,0.436,1.17,11.213,0.008,59.436
		c-0.347,14.238-5.568,34.311-28.493,49.089c-13.623,8.778-26.894,11.466-27.453,11.574L77.71,194.706z M80.708,89.274v101.713
		c4.058-1.036,14.396-4.128,24.696-10.781c17.473-11.29,26.567-26.961,27.037-46.59c0.917-37.981,0.4-52.745,0.135-57.308
		L80.708,89.274z"/>
</g>
<g>
	<path fill="#333333" d="M74.518,78.721L15.093,65.038c0,0,0.782-28.932,22.675-32.449c5.504-0.884,10.562-1.636,15.053-2.264
		c0.98-0.135,1.933-0.266,2.859-0.393c0,0,14.114-0.749,18.838-0.749c4.724,0,18.838,0.749,18.838,0.749
		c0.928,0.127,1.879,0.258,2.86,0.393c4.49,0.628,9.549,1.38,15.048,2.264c21.897,3.518,22.679,32.449,22.679,32.449L74.518,78.721z
		"/>
	<path fill="#333333" d="M74.518,80.259l-0.335-0.077L13.561,66.222l0.033-1.225c0.007-0.302,1.08-30.216,23.938-33.889
		c5.09-0.818,10.165-1.581,15.082-2.268l2.988-0.406c0.578-0.031,14.206-0.75,18.917-0.75c4.711,0,18.341,0.72,18.919,0.75
		l0.123,0.012l2.864,0.395c4.913,0.688,9.988,1.45,15.078,2.268c22.86,3.673,23.935,33.587,23.942,33.889l0.03,1.225L74.518,80.259z
		 M16.669,63.862l57.849,13.319l57.846-13.319c-0.462-5.385-3.419-26.913-21.335-29.792c-5.07-0.814-10.122-1.575-15.021-2.258
		l-2.795-0.385c-1.032-0.054-14.226-0.743-18.696-0.743c-4.472,0-17.667,0.689-18.696,0.743l-2.795,0.385
		c-4.896,0.684-9.951,1.444-15.021,2.258C20.062,36.953,17.124,58.477,16.669,63.862z"/>
</g>
<g>
	<path fill="#333333" d="M15.093,74.42l54.733,13.684v104.778c0,0-53.561-10.559-54.733-59.231
		C13.92,84.976,15.093,74.42,15.093,74.42z"/>
	<path fill="#333333" d="M71.326,194.706l-1.791-0.354c-0.558-0.108-13.827-2.796-27.45-11.574
		c-12.654-8.155-27.871-23.292-28.493-49.089c-1.163-48.223-0.041-59,0.007-59.436l0.191-1.704l57.535,14.383V194.706z
		 M16.461,76.31c-0.262,4.582-0.783,19.412,0.129,57.306c1.011,41.931,42.533,54.991,51.736,57.367V89.274L16.461,76.31z"/>
</g>
<g>
	<path fill="none" stroke="#231F20" stroke-width="3" stroke-miterlimit="10" d="M74.518,23.531"/>
</g>
<g>
	<path fill="#333333" d="M74.518,23.531c-20.355,0-27.736,2.387-27.736,2.387c0.537-9.279,13.857-15.136,13.857-15.136l0,0
		c2.38-0.245,2.801-3.714,5.319-3.828c1.806-0.081,3.061,1.6,8.56,1.6s6.755-1.681,8.561-1.6c2.519,0.114,2.938,3.583,5.317,3.828
		l0,0c0,0,13.319,5.856,13.858,15.136C102.255,25.918,94.873,23.531,74.518,23.531"/>
	<path fill="#333333" d="M103.879,28.019l-2.083-0.674c-0.096-0.031-7.55-2.314-27.278-2.314c-19.762,0-27.205,2.291-27.278,2.314
		l-2.077,0.66l0.123-2.173C45.869,15.751,59.457,9.664,60.035,9.409l0.218-0.096l0.233-0.023c0.5-0.052,0.907-0.537,1.526-1.327
		c0.801-1.02,1.9-2.418,3.877-2.506l0.195-0.006c0.897,0,1.655,0.277,2.457,0.572c1.257,0.46,2.82,1.032,5.978,1.032
		c3.156,0,4.72-0.572,5.978-1.032c0.801-0.294,1.56-0.572,2.456-0.572l0.192,0.006c1.979,0.088,3.077,1.486,3.878,2.506
		c0.624,0.79,1.028,1.275,1.528,1.327l0.235,0.023l0.215,0.096c0.578,0.254,14.166,6.342,14.747,16.422L103.879,28.019z
		 M74.518,22.031c14.314,0,22.285,1.167,25.865,1.894c-1.994-6.588-11.02-11.039-12.413-11.69c-1.617-0.277-2.549-1.459-3.304-2.418
		c-0.731-0.932-1.109-1.34-1.656-1.365c0,0,0,0-0.004,0c-0.423,0-0.866,0.162-1.482,0.387c-1.32,0.483-3.318,1.215-7.005,1.215
		s-5.685-0.731-7.006-1.215c-0.618-0.225-1.062-0.389-1.428-0.389c-0.606,0.027-0.984,0.435-1.716,1.367
		c-0.752,0.959-1.683,2.141-3.303,2.418c-1.388,0.653-10.416,5.118-12.41,11.688C52.236,23.198,60.206,22.031,74.518,22.031z"/>
</g>
<g>
	<path fill="none" stroke="#231F20" stroke-width="3" stroke-miterlimit="10" d="M83.796,24.592"/>
</g>
<g>
	<path fill="#FFFFFF" d="M86.606,25.899l-2.996-0.191c0.301-4.707,2.441-15.526,5.275-18.57l2.195,2.042
		C89.232,11.163,86.957,20.431,86.606,25.899z"/>
</g>
<g>
	<path fill="#FFFFFF" d="M62.432,25.899c-0.351-5.468-2.626-14.736-4.474-16.719l2.195-2.042c2.835,3.044,4.971,13.863,5.273,18.57
		L62.432,25.899z"/>
</g>
<g>
	<path fill="none" stroke="#231F20" stroke-width="3" stroke-miterlimit="10" d="M74.518,23.531"/>
</g>
<g>
	<path fill="none" stroke="#231F20" stroke-width="3" stroke-miterlimit="10" d="M65.242,24.592"/>
</g>
</svg>
