<?xml version="1.0" encoding="utf-8"?>
<!-- Generator: Adobe Illustrator 16.0.4, SVG Export Plug-In . SVG Version: 6.00 Build 0)  -->
<!DOCTYPE svg PUBLIC "-//W3C//DTD SVG 1.1//EN" "http://www.w3.org/Graphics/SVG/1.1/DTD/svg11.dtd">
<svg version="1.1" xmlns="http://www.w3.org/2000/svg" xmlns:xlink="http://www.w3.org/1999/xlink" x="0px" y="0px" width="150px"
	 height="200px" viewBox="0 0 150 200" enable-background="new 0 0 150 200" xml:space="preserve">
<g id="Layer_2">
</g>
<g id="Layer_1">
	<path fill="#333333" d="M135.438,74.255l-0.192-1.704L77.71,86.934v107.772l1.789-0.353c0.56-0.107,13.83-2.795,27.453-11.574
		c22.925-14.777,28.146-34.85,28.493-49.088C136.607,85.468,135.482,74.691,135.438,74.255z"/>
	<path fill="#333333" d="M135.445,64.998c-0.008-0.302-1.082-30.216-23.942-33.889c-5.09-0.818-10.165-1.58-15.078-2.268
		l-2.864-0.395l-0.123-0.012c-0.578-0.03-14.207-0.75-18.918-0.75c-4.711,0-18.339,0.719-18.917,0.75l-2.988,0.406
		c-4.917,0.687-9.992,1.45-15.082,2.268c-22.858,3.673-23.931,33.587-23.938,33.889l-0.033,1.225l60.622,13.96l0.335,0.077
		l60.957-14.036L135.445,64.998z"/>
	<path fill="#333333" d="M13.79,72.549l-0.191,1.704c-0.048,0.436-1.17,11.213-0.007,59.437
		c0.622,25.797,15.839,40.934,28.493,49.088c13.623,8.779,26.892,11.467,27.45,11.574l1.79,0.354V86.932L13.79,72.549z"/>
	<g>
		<path fill="none" stroke="#231F20" stroke-width="3" stroke-miterlimit="10" d="M74.518,23.531"/>
	</g>
	<g>
		<path fill="none" stroke="#231F20" stroke-width="3" stroke-miterlimit="10" d="M83.796,24.592"/>
	</g>
	<g>
		<path fill="#333333" d="M87.755,8.819c-0.22-0.22-0.452-0.502-0.731-0.856c-0.801-1.02-1.899-2.418-3.879-2.506l-0.191-0.006
			c-0.896,0-1.655,0.278-2.456,0.572c-1.259,0.46-2.822,1.032-5.978,1.032c-3.158,0-4.721-0.572-5.978-1.032
			c-0.802-0.295-1.56-0.572-2.457-0.572l-0.195,0.006c-1.977,0.088-3.076,1.486-3.877,2.506c-0.277,0.354-0.51,0.636-0.729,0.856
			c2.173,4.086,3.754,12.173,4.103,16.394c2.698-0.112,5.729-0.182,9.133-0.182c3.404,0,6.434,0.069,9.132,0.182
			C83.998,20.991,85.582,12.905,87.755,8.819z"/>
		<path fill="#333333" d="M58.59,10.114c-3.634,1.89-12.827,7.464-13.304,15.718l-0.123,2.173l2.077-0.66
			c0.055-0.018,4.383-1.347,15.148-1.982C61.986,20.482,60.23,13.089,58.59,10.114z"/>
		<path fill="#333333" d="M103.748,25.831c-0.476-8.252-9.665-13.826-13.301-15.717c-1.64,2.976-3.395,10.369-3.798,15.249
			c10.74,0.634,15.073,1.958,15.146,1.982l2.083,0.674L103.748,25.831z"/>
	</g>
	<g>
		<path fill="none" stroke="#231F20" stroke-width="3" stroke-miterlimit="10" d="M74.518,23.531"/>
	</g>
	<g>
		<path fill="none" stroke="#231F20" stroke-width="3" stroke-miterlimit="10" d="M65.242,24.592"/>
	</g>
</g>
</svg>
